<svg width="237" height="41" viewBox="0 0 237 41" fill="none" xmlns="http://www.w3.org/2000/svg">
  <!-- Icon shapes modified to TemuGeek colors -->
  <path d="M9.13066 30.7407L15.6631 20.75C10.8983 19.9814 7.78576 22.4791 6.82511 23.824L0.292725 33.0462H5.67234C7.36308 33.0462 8.68236 31.5092 9.13066 30.7407Z" fill="#e92652"/>
  <path d="M9.13066 9.99071L15.6631 19.9814C10.8983 20.7499 7.78576 18.2523 6.82511 16.9074L0.292725 7.68516H5.67234C7.36308 7.68516 8.68236 9.2222 9.13066 9.99071Z" fill="#e92652"/>
  <path d="M10.6674 8.83794L20.6582 15.3703C21.4267 10.6055 18.929 7.49304 17.5841 6.53239L8.36189 -5.43774e-07L8.36189 5.37961C8.36189 7.07035 9.89893 8.38964 10.6674 8.83794Z" fill="#ffe62e"/>
  <path d="M31.4174 8.83794L21.4267 15.3703C20.6582 10.6055 23.1558 7.49304 24.5007 6.53239L33.7229 5.43774e-07L33.7229 5.37962C33.7229 7.07035 32.1859 8.38964 31.4174 8.83794Z" fill="#ffe62e"/>
  <path d="M10.6674 31.8934L20.6582 25.361C21.4267 30.1258 18.929 33.2383 17.5841 34.199L8.36189 40.7314L8.36189 35.3518C8.36189 33.661 9.89893 32.3417 10.6674 31.8934Z" fill="#e92652"/>
  <path d="M31.4174 31.8934L21.4267 25.361C20.6582 30.1258 23.1558 33.2383 24.5007 34.199L33.7229 40.7314L33.7229 35.3518C33.7229 33.661 32.1859 32.3417 31.4174 31.8934Z" fill="#e92652"/>
  <path d="M32.9544 9.9907L26.422 19.9814C31.1868 20.7499 34.2993 18.2522 35.26 16.9073L41.7924 7.68515H36.4127C34.722 7.68515 33.4027 9.22218 32.9544 9.9907Z" fill="#ffe62e"/>
  <path d="M32.9544 30.7406L26.422 20.7499C31.1868 19.9814 34.2993 22.4791 35.26 23.824L41.7924 33.0462H36.4127C34.722 33.0462 33.4027 31.5092 32.9544 30.7406Z" fill="#ffe62e"/>
  
  <!-- Text: TEMUGEEK in White -->
  <text x="50" y="30" fill="#ffffff" font-family="'Righteous', sans-serif" font-size="24" font-weight="900" letter-spacing="1">TEMUGEEK</text>
</svg>
